<svg xmlns="http://www.w3.org/2000/svg" xmlns:xlink="http://www.w3.org/1999/xlink" id="visual" viewBox="0 0 1400 220" width="1400" height="220" version="1.1">
 <defs>
    <linearGradient id="grad1" x1="0%" y1="0%" x2="100%" y2="0%" spreadMethod="pad" gradientTransform="matrix(1.364795, 0.140642, -0.117801, 0.993949, 0.052615, -0.024531)">
      <stop offset="0" style="stop-opacity: 1; stop-color: rgb(3, 159, 179);"/>
      <stop offset="1" style="stop-opacity: 1; stop-color: rgb(110, 87, 224);"/>
    </linearGradient>
  </defs>
<path d="M0 46L11.7 44.7C23.3 43.3 46.7 40.7 70 41.3C93.3 42 116.7 46 140 46.7C163.3 47.3 186.7 44.7 210 42.7C233.3 40.7 256.7 39.3 280 40.5C303.3 41.7 326.7 45.3 350 45.2C373.3 45 396.7 41 420 39C443.3 37 466.7 37 490 37.5C513.3 38 536.7 39 560 41C583.3 43 606.7 46 630 47C653.3 48 676.7 47 700 45.7C723.3 44.3 746.7 42.7 770 41.7C793.3 40.7 816.7 40.3 840 41.7C863.3 43 886.7 46 910 46.7C933.3 47.3 956.7 45.7 980 45.3C1003.3 45 1026.7 46 1050 44.7C1073.3 43.3 1096.7 39.7 1120 38.3C1143.3 37 1166.7 38 1190 39.2C1213.3 40.3 1236.7 41.7 1260 41C1283.3 40.3 1306.7 37.7 1330 38C1353.3 38.3 1376.7 41.7 1388.3 43.3L1400 45L1400 0L1388.3 0C1376.7 0 1353.3 0 1330 0C1306.7 0 1283.3 0 1260 0C1236.7 0 1213.3 0 1190 0C1166.7 0 1143.3 0 1120 0C1096.7 0 1073.3 0 1050 0C1026.7 0 1003.3 0 980 0C956.7 0 933.3 0 910 0C886.7 0 863.3 0 840 0C816.7 0 793.3 0 770 0C746.7 0 723.3 0 700 0C676.7 0 653.3 0 630 0C606.7 0 583.3 0 560 0C536.7 0 513.3 0 490 0C466.7 0 443.3 0 420 0C396.7 0 373.3 0 350 0C326.7 0 303.3 0 280 0C256.7 0 233.3 0 210 0C186.7 0 163.3 0 140 0C116.7 0 93.3 0 70 0C46.7 0 23.3 0 11.7 0L0 0Z" stroke-linecap="round" stroke-linejoin="miter"/></svg>